G04*
G04 #@! TF.GenerationSoftware,Altium Limited,Altium Designer,24.2.2 (26)*
G04*
G04 Layer_Physical_Order=2*
G04 Layer_Color=16711680*
%FSLAX25Y25*%
%MOIN*%
G70*
G04*
G04 #@! TF.SameCoordinates,D4B7AB03-ACD0-4E4C-BE4D-9A7B16F7929E*
G04*
G04*
G04 #@! TF.FilePolarity,Positive*
G04*
G01*
G75*
%ADD19C,0.06181*%
%ADD20R,0.06181X0.06181*%
%ADD21C,0.03000*%
%ADD22C,0.06299*%
G04:AMPARAMS|DCode=23|XSize=62.99mil|YSize=62.99mil|CornerRadius=15.75mil|HoleSize=0mil|Usage=FLASHONLY|Rotation=90.000|XOffset=0mil|YOffset=0mil|HoleType=Round|Shape=RoundedRectangle|*
%AMROUNDEDRECTD23*
21,1,0.06299,0.03150,0,0,90.0*
21,1,0.03150,0.06299,0,0,90.0*
1,1,0.03150,0.01575,0.01575*
1,1,0.03150,0.01575,-0.01575*
1,1,0.03150,-0.01575,-0.01575*
1,1,0.03150,-0.01575,0.01575*
%
%ADD23ROUNDEDRECTD23*%
%ADD24C,0.05000*%
G36*
X572500Y100000D02*
X399000D01*
Y278500D01*
X572500D01*
Y100000D01*
D02*
G37*
%LPC*%
G36*
X424090Y253091D02*
X415909D01*
Y244910D01*
X424090D01*
Y253091D01*
D02*
G37*
G36*
X557590Y251590D02*
X549409D01*
Y243409D01*
X557590D01*
Y251590D01*
D02*
G37*
G36*
X420539Y243091D02*
X419461D01*
X418421Y242812D01*
X417488Y242273D01*
X416727Y241512D01*
X416188Y240579D01*
X415909Y239539D01*
Y238461D01*
X416188Y237421D01*
X416727Y236488D01*
X417488Y235727D01*
X418421Y235188D01*
X419461Y234910D01*
X420539D01*
X421579Y235188D01*
X422512Y235727D01*
X423273Y236488D01*
X423812Y237421D01*
X424090Y238461D01*
Y239539D01*
X423812Y240579D01*
X423273Y241512D01*
X422512Y242273D01*
X421579Y242812D01*
X420539Y243091D01*
D02*
G37*
G36*
X554038Y241590D02*
X552961D01*
X551921Y241312D01*
X550988Y240773D01*
X550227Y240012D01*
X549688Y239079D01*
X549409Y238038D01*
Y236962D01*
X549688Y235921D01*
X550227Y234988D01*
X550988Y234227D01*
X551921Y233688D01*
X552961Y233410D01*
X554038D01*
X555079Y233688D01*
X556012Y234227D01*
X556773Y234988D01*
X557312Y235921D01*
X557590Y236962D01*
Y238038D01*
X557312Y239079D01*
X556773Y240012D01*
X556012Y240773D01*
X555079Y241312D01*
X554038Y241590D01*
D02*
G37*
G36*
X494961Y237000D02*
X494039D01*
X493149Y236761D01*
X492351Y236301D01*
X492099Y236049D01*
X447000D01*
X446025Y235855D01*
X445198Y235302D01*
X421545Y211650D01*
X420454D01*
X419398Y211367D01*
X418452Y210821D01*
X417680Y210048D01*
X417133Y209102D01*
X416850Y208046D01*
Y206954D01*
X417133Y205898D01*
X417680Y204952D01*
X418452Y204180D01*
X419398Y203633D01*
X420454Y203350D01*
X421546D01*
X422602Y203633D01*
X423548Y204180D01*
X424321Y204952D01*
X424867Y205898D01*
X425150Y206954D01*
Y208045D01*
X448056Y230951D01*
X492099D01*
X492351Y230699D01*
X493149Y230239D01*
X494039Y230000D01*
X494961D01*
X495851Y230239D01*
X496649Y230699D01*
X497301Y231351D01*
X497761Y232149D01*
X498000Y233039D01*
Y233961D01*
X497761Y234851D01*
X497301Y235649D01*
X496649Y236301D01*
X495851Y236761D01*
X494961Y237000D01*
D02*
G37*
G36*
X421546Y201650D02*
X420454D01*
X419398Y201367D01*
X418452Y200820D01*
X417680Y200048D01*
X417133Y199102D01*
X416850Y198046D01*
Y196954D01*
X417133Y195898D01*
X417680Y194952D01*
X418452Y194179D01*
X419398Y193633D01*
X420454Y193350D01*
X421546D01*
X422602Y193633D01*
X423548Y194179D01*
X424321Y194952D01*
X424867Y195898D01*
X425150Y196954D01*
Y198046D01*
X424867Y199102D01*
X424321Y200048D01*
X423548Y200820D01*
X422602Y201367D01*
X421546Y201650D01*
D02*
G37*
G36*
Y191650D02*
X420454D01*
X419398Y191367D01*
X418452Y190821D01*
X417680Y190048D01*
X417133Y189102D01*
X416850Y188046D01*
Y186954D01*
X417133Y185898D01*
X417680Y184952D01*
X418452Y184179D01*
X419398Y183633D01*
X420454Y183350D01*
X421546D01*
X422602Y183633D01*
X423548Y184179D01*
X424319Y184951D01*
X498599D01*
X498851Y184699D01*
X499649Y184239D01*
X500539Y184000D01*
X501461D01*
X502351Y184239D01*
X503149Y184699D01*
X503801Y185351D01*
X504261Y186149D01*
X504500Y187039D01*
Y187961D01*
X504261Y188851D01*
X503801Y189649D01*
X503149Y190301D01*
X502351Y190761D01*
X501461Y191000D01*
X500539D01*
X499649Y190761D01*
X498851Y190301D01*
X498599Y190049D01*
X424319D01*
X423548Y190821D01*
X422602Y191367D01*
X421546Y191650D01*
D02*
G37*
G36*
X450000Y180490D02*
Y177500D01*
X452989D01*
X452762Y178351D01*
X452301Y179149D01*
X451649Y179801D01*
X450851Y180262D01*
X450000Y180490D01*
D02*
G37*
G36*
X449000D02*
X448149Y180262D01*
X447351Y179801D01*
X446699Y179149D01*
X446239Y178351D01*
X446010Y177500D01*
X449000D01*
Y180490D01*
D02*
G37*
G36*
X422575Y181672D02*
X419425D01*
X418753Y181583D01*
X418127Y181324D01*
X417589Y180911D01*
X417176Y180373D01*
X416917Y179747D01*
X416828Y179075D01*
Y175925D01*
X416917Y175253D01*
X417176Y174627D01*
X417589Y174089D01*
X418127Y173676D01*
X418753Y173417D01*
X419425Y173328D01*
X422575D01*
X423247Y173417D01*
X423873Y173676D01*
X424411Y174089D01*
X424824Y174627D01*
X425083Y175253D01*
X425172Y175925D01*
Y179075D01*
X425083Y179747D01*
X424824Y180373D01*
X424411Y180911D01*
X423873Y181324D01*
X423247Y181583D01*
X422575Y181672D01*
D02*
G37*
G36*
X421546Y154150D02*
X420454D01*
X419398Y153867D01*
X418452Y153321D01*
X417680Y152548D01*
X417133Y151602D01*
X416850Y150546D01*
Y149454D01*
X417133Y148398D01*
X417680Y147452D01*
X418452Y146679D01*
X419398Y146133D01*
X420454Y145850D01*
X421546D01*
X422602Y146133D01*
X423548Y146679D01*
X424321Y147452D01*
X424867Y148398D01*
X425150Y149454D01*
Y150546D01*
X424867Y151602D01*
X424321Y152548D01*
X423548Y153321D01*
X422602Y153867D01*
X421546Y154150D01*
D02*
G37*
G36*
Y144150D02*
X420454D01*
X419398Y143867D01*
X418452Y143321D01*
X417680Y142548D01*
X417133Y141602D01*
X416850Y140546D01*
Y139454D01*
X417133Y138398D01*
X417680Y137452D01*
X418452Y136679D01*
X419398Y136133D01*
X420454Y135850D01*
X421546D01*
X422602Y136133D01*
X423548Y136679D01*
X424321Y137452D01*
X424867Y138398D01*
X425150Y139454D01*
Y140546D01*
X424867Y141602D01*
X424321Y142548D01*
X423548Y143321D01*
X422602Y143867D01*
X421546Y144150D01*
D02*
G37*
G36*
X452989Y176500D02*
X446010D01*
X446239Y175649D01*
X446699Y174851D01*
X446951Y174599D01*
Y131782D01*
X424763D01*
X424321Y132548D01*
X423548Y133320D01*
X422602Y133867D01*
X421546Y134150D01*
X421500D01*
Y130000D01*
Y125850D01*
X421546D01*
X422602Y126133D01*
X423548Y126680D01*
X423552Y126684D01*
X448914D01*
X449890Y126878D01*
X450717Y127430D01*
X451302Y128016D01*
X451855Y128843D01*
X452049Y129819D01*
Y174599D01*
X452301Y174851D01*
X452762Y175649D01*
X452989Y176500D01*
D02*
G37*
G36*
X420500Y134150D02*
X420454D01*
X419398Y133867D01*
X418452Y133320D01*
X417680Y132548D01*
X417133Y131602D01*
X416850Y130546D01*
Y130500D01*
X420500D01*
Y134150D01*
D02*
G37*
G36*
Y129500D02*
X416850D01*
Y129454D01*
X417133Y128398D01*
X417680Y127452D01*
X418452Y126680D01*
X419398Y126133D01*
X420454Y125850D01*
X420500D01*
Y129500D01*
D02*
G37*
G36*
X422575Y124172D02*
X419425D01*
X418753Y124083D01*
X418127Y123824D01*
X417589Y123411D01*
X417176Y122873D01*
X416917Y122247D01*
X416828Y121575D01*
Y118425D01*
X416917Y117753D01*
X417176Y117127D01*
X417589Y116589D01*
X418127Y116176D01*
X418753Y115917D01*
X419425Y115828D01*
X422575D01*
X423247Y115917D01*
X423873Y116176D01*
X424411Y116589D01*
X424824Y117127D01*
X425083Y117753D01*
X425172Y118425D01*
Y121575D01*
X425083Y122247D01*
X424824Y122873D01*
X424411Y123411D01*
X423873Y123824D01*
X423247Y124083D01*
X422575Y124172D01*
D02*
G37*
%LPD*%
D19*
X420000Y239000D02*
D03*
X553500Y237500D02*
D03*
D20*
X420000Y249000D02*
D03*
X553500Y247500D02*
D03*
D21*
X421000Y187500D02*
X501000D01*
X421767Y129233D02*
X448914D01*
X421000Y130000D02*
X421767Y129233D01*
X449500Y129819D02*
Y177000D01*
X448914Y129233D02*
X449500Y129819D01*
X447000Y233500D02*
X494500D01*
X421000Y207500D02*
X447000Y233500D01*
D22*
X421000Y187500D02*
D03*
Y197500D02*
D03*
Y207500D02*
D03*
Y130000D02*
D03*
Y140000D02*
D03*
Y150000D02*
D03*
D23*
Y177500D02*
D03*
Y120000D02*
D03*
D24*
X501000Y187500D02*
D03*
X449500Y177000D02*
D03*
X494500Y233500D02*
D03*
M02*
