G04*
G04 #@! TF.GenerationSoftware,Altium Limited,Altium Designer,24.2.2 (26)*
G04*
G04 Layer_Color=8388736*
%FSLAX25Y25*%
%MOIN*%
G70*
G04*
G04 #@! TF.SameCoordinates,FA71A643-0AA1-49A6-91FF-2340C96BA847*
G04*
G04*
G04 #@! TF.FilePolarity,Negative*
G04*
G01*
G75*
%ADD15R,0.05938X0.04750*%
%ADD16R,0.07800X0.02200*%
%ADD17C,0.07099*%
G04:AMPARAMS|DCode=18|XSize=70.99mil|YSize=70.99mil|CornerRadius=19.75mil|HoleSize=0mil|Usage=FLASHONLY|Rotation=90.000|XOffset=0mil|YOffset=0mil|HoleType=Round|Shape=RoundedRectangle|*
%AMROUNDEDRECTD18*
21,1,0.07099,0.03150,0,0,90.0*
21,1,0.03150,0.07099,0,0,90.0*
1,1,0.03950,0.01575,0.01575*
1,1,0.03950,0.01575,-0.01575*
1,1,0.03950,-0.01575,-0.01575*
1,1,0.03950,-0.01575,0.01575*
%
%ADD18ROUNDEDRECTD18*%
%ADD19C,0.06181*%
%ADD20R,0.06181X0.06181*%
D15*
X446000Y218137D02*
D03*
Y209863D02*
D03*
X506000Y140363D02*
D03*
Y148637D02*
D03*
X463500Y140363D02*
D03*
Y148637D02*
D03*
X515000Y216637D02*
D03*
Y208363D02*
D03*
X533500Y247137D02*
D03*
Y238863D02*
D03*
X437500D02*
D03*
Y247137D02*
D03*
X555000Y195863D02*
D03*
Y204137D02*
D03*
D16*
X475300Y170000D02*
D03*
Y165000D02*
D03*
Y160000D02*
D03*
Y155000D02*
D03*
X494700D02*
D03*
Y160000D02*
D03*
Y165000D02*
D03*
Y170000D02*
D03*
X541200Y145000D02*
D03*
Y140000D02*
D03*
Y135000D02*
D03*
Y130000D02*
D03*
X521800D02*
D03*
Y135000D02*
D03*
Y140000D02*
D03*
Y145000D02*
D03*
X494700Y221500D02*
D03*
Y216500D02*
D03*
Y211500D02*
D03*
Y206500D02*
D03*
X475300D02*
D03*
Y211500D02*
D03*
Y216500D02*
D03*
Y221500D02*
D03*
D17*
X421000Y187500D02*
D03*
Y197500D02*
D03*
Y207500D02*
D03*
Y130000D02*
D03*
Y140000D02*
D03*
Y150000D02*
D03*
D18*
Y177500D02*
D03*
Y120000D02*
D03*
D19*
X420000Y239000D02*
D03*
X553500Y237500D02*
D03*
D20*
X420000Y249000D02*
D03*
X553500Y247500D02*
D03*
M02*
