G04*
G04 #@! TF.GenerationSoftware,Altium Limited,Altium Designer,24.2.2 (26)*
G04*
G04 Layer_Physical_Order=1*
G04 Layer_Color=255*
%FSLAX25Y25*%
%MOIN*%
G70*
G04*
G04 #@! TF.SameCoordinates,D4B7AB03-ACD0-4E4C-BE4D-9A7B16F7929E*
G04*
G04*
G04 #@! TF.FilePolarity,Positive*
G04*
G01*
G75*
%ADD15R,0.05938X0.04750*%
%ADD16R,0.07800X0.02200*%
%ADD19C,0.06181*%
%ADD20R,0.06181X0.06181*%
%ADD21C,0.03000*%
%ADD22C,0.06299*%
G04:AMPARAMS|DCode=23|XSize=62.99mil|YSize=62.99mil|CornerRadius=15.75mil|HoleSize=0mil|Usage=FLASHONLY|Rotation=90.000|XOffset=0mil|YOffset=0mil|HoleType=Round|Shape=RoundedRectangle|*
%AMROUNDEDRECTD23*
21,1,0.06299,0.03150,0,0,90.0*
21,1,0.03150,0.06299,0,0,90.0*
1,1,0.03150,0.01575,0.01575*
1,1,0.03150,0.01575,-0.01575*
1,1,0.03150,-0.01575,-0.01575*
1,1,0.03150,-0.01575,0.01575*
%
%ADD23ROUNDEDRECTD23*%
%ADD24C,0.05000*%
D15*
X446000Y218137D02*
D03*
Y209863D02*
D03*
X506000Y140363D02*
D03*
Y148637D02*
D03*
X463500Y140363D02*
D03*
Y148637D02*
D03*
X515000Y216637D02*
D03*
Y208363D02*
D03*
X533500Y247137D02*
D03*
Y238863D02*
D03*
X437500D02*
D03*
Y247137D02*
D03*
X555000Y195863D02*
D03*
Y204137D02*
D03*
D16*
X475300Y170000D02*
D03*
Y165000D02*
D03*
Y160000D02*
D03*
Y155000D02*
D03*
X494700D02*
D03*
Y160000D02*
D03*
Y165000D02*
D03*
Y170000D02*
D03*
X541200Y145000D02*
D03*
Y140000D02*
D03*
Y135000D02*
D03*
Y130000D02*
D03*
X521800D02*
D03*
Y135000D02*
D03*
Y140000D02*
D03*
Y145000D02*
D03*
X494700Y221500D02*
D03*
Y216500D02*
D03*
Y211500D02*
D03*
Y206500D02*
D03*
X475300D02*
D03*
Y211500D02*
D03*
Y216500D02*
D03*
Y221500D02*
D03*
D19*
X420000Y239000D02*
D03*
X553500Y237500D02*
D03*
D20*
X420000Y249000D02*
D03*
X553500Y247500D02*
D03*
D21*
X470657Y211500D02*
X475300D01*
X468900Y209743D02*
X470657Y211500D01*
X468900Y204364D02*
Y209743D01*
X437500Y211620D02*
X439257Y209863D01*
X446000D01*
X445125Y210738D02*
X446000Y209863D01*
X453500Y218000D02*
Y219743D01*
Y198086D02*
Y218000D01*
X446000Y218137D02*
X453363D01*
X453500Y218000D01*
Y219743D02*
X455257Y221500D01*
X475300D01*
X421000Y197500D02*
X452914D01*
X453500Y198086D01*
X437500Y211620D02*
Y238863D01*
X460000Y187500D02*
Y212500D01*
X464000Y216500D01*
X475300D01*
X494700D01*
X449500Y177000D02*
X460000Y187500D01*
X501100Y166857D02*
Y187400D01*
X494700Y165000D02*
X499243D01*
X501100Y166857D01*
X501000Y187500D02*
X501100Y187400D01*
X499000Y221500D02*
X512137Y208363D01*
X515000D01*
X494700Y192200D02*
X503500Y201000D01*
X494700Y221500D02*
X499000D01*
X494700Y211500D02*
X498236D01*
X503500Y206236D01*
Y201000D02*
Y206236D01*
X475300Y170000D02*
Y197965D01*
X468900Y204364D02*
X475300Y197965D01*
X494700Y170000D02*
Y192200D01*
X533500Y238863D02*
X541243D01*
X543000Y240620D02*
Y245743D01*
X541243Y238863D02*
X543000Y240620D01*
Y245743D02*
X544757Y247500D01*
X553500D01*
X463500Y140363D02*
X506000D01*
X506137Y148500D02*
X511500D01*
X506000Y148637D02*
X506137Y148500D01*
X511500D02*
X514001Y145999D01*
X515000Y145000D01*
X521800D01*
X506000Y148637D02*
Y158243D01*
X494700Y160000D02*
X504243D01*
X506000Y158243D01*
X463500Y148637D02*
Y155500D01*
X468000Y160000D02*
X475300D01*
X463500Y155500D02*
X468000Y160000D01*
X421000Y177500D02*
X433500Y165000D01*
X475300D01*
X521800Y135000D02*
X541200D01*
X426000D02*
X521800D01*
X421000Y140000D02*
X426000Y135000D01*
X410586Y249000D02*
X420000D01*
X410000Y248414D02*
X410586Y249000D01*
X410000Y173500D02*
Y248414D01*
X421000Y150000D02*
Y162500D01*
X410000Y173500D02*
X421000Y162500D01*
X420000Y239000D02*
X437363D01*
X437500Y238863D01*
X420000Y249000D02*
X421863Y247137D01*
X437500D01*
X494500Y221700D02*
X494700Y221500D01*
X494500Y221700D02*
Y233500D01*
X515000Y220957D02*
X532906Y238863D01*
X515000Y216637D02*
Y220957D01*
X532906Y238863D02*
X533500D01*
X521800Y140000D02*
X541200D01*
Y145000D01*
X555000Y156000D02*
Y195863D01*
X544000Y145000D02*
X555000Y156000D01*
X541200Y145000D02*
X544000D01*
X553500Y205637D02*
X555000Y204137D01*
X553500Y205637D02*
Y237500D01*
X534086Y261000D02*
X558000D01*
X533500Y247137D02*
Y260414D01*
X534086Y261000D01*
X558000D02*
X563500Y255500D01*
Y241000D02*
Y255500D01*
X560000Y237500D02*
X563500Y241000D01*
X553500Y237500D02*
X560000D01*
X437500Y247137D02*
X533500D01*
X555000Y195863D02*
X556200Y194663D01*
D22*
X421000Y187500D02*
D03*
Y197500D02*
D03*
Y207500D02*
D03*
Y130000D02*
D03*
Y140000D02*
D03*
Y150000D02*
D03*
D23*
Y177500D02*
D03*
Y120000D02*
D03*
D24*
X501000Y187500D02*
D03*
X449500Y177000D02*
D03*
X494500Y233500D02*
D03*
M02*
