G04*
G04 #@! TF.GenerationSoftware,Altium Limited,Altium Designer,24.2.2 (26)*
G04*
G04 Layer_Color=65535*
%FSLAX25Y25*%
%MOIN*%
G70*
G04*
G04 #@! TF.SameCoordinates,D4B7AB03-ACD0-4E4C-BE4D-9A7B16F7929E*
G04*
G04*
G04 #@! TF.FilePolarity,Positive*
G04*
G01*
G75*
%ADD10C,0.00984*%
%ADD11C,0.00787*%
%ADD12C,0.00600*%
%ADD13C,0.01000*%
%ADD14C,0.00300*%
D10*
X421492Y170138D02*
G03*
X421492Y170138I-492J0D01*
G01*
X420492Y257484D02*
G03*
X420492Y257484I-492J0D01*
G01*
X421492Y112638D02*
G03*
X421492Y112638I-492J0D01*
G01*
X553992Y255984D02*
G03*
X553992Y255984I-492J0D01*
G01*
D11*
X448461Y213714D02*
Y214286D01*
X443539Y213714D02*
Y214286D01*
X503539Y144214D02*
Y144786D01*
X508461Y144214D02*
Y144786D01*
X461039Y144214D02*
Y144786D01*
X465961Y144214D02*
Y144786D01*
X517461Y212214D02*
Y212786D01*
X512539Y212214D02*
Y212786D01*
X426295Y171909D02*
Y213090D01*
X415705Y171909D02*
X426295D01*
X415705D02*
Y213090D01*
X426295D01*
X414803Y254984D02*
X425197D01*
X414803Y233016D02*
Y254984D01*
Y233016D02*
X425197D01*
Y254984D01*
X535961Y242714D02*
Y243286D01*
X531039Y242714D02*
Y243286D01*
X426295Y114409D02*
Y155591D01*
X415705Y114409D02*
X426295D01*
X415705D02*
Y155591D01*
X426295D01*
X435039Y242714D02*
Y243286D01*
X439961Y242714D02*
Y243286D01*
X548303Y253484D02*
X558697D01*
X548303Y231516D02*
Y253484D01*
Y231516D02*
X558697D01*
Y253484D01*
X552539Y199714D02*
Y200286D01*
X557461Y199714D02*
Y200286D01*
D12*
X476650Y152150D02*
X493350D01*
X476650Y172850D02*
X493350D01*
X523150Y147850D02*
X539850D01*
X523150Y127150D02*
X539850D01*
X476650Y224350D02*
X493350D01*
X476650Y203650D02*
X493350D01*
D13*
X441700Y225900D02*
Y231898D01*
X444699D01*
X445699Y230898D01*
Y228899D01*
X444699Y227899D01*
X441700D01*
X443699D02*
X445699Y225900D01*
X447698D02*
X449697D01*
X448698D01*
Y231898D01*
X447698Y230898D01*
X501700Y156400D02*
Y162398D01*
X504699D01*
X505699Y161398D01*
Y159399D01*
X504699Y158399D01*
X501700D01*
X503699D02*
X505699Y156400D01*
X507698Y162398D02*
X511697D01*
Y161398D01*
X507698Y157400D01*
Y156400D01*
X459200D02*
Y162398D01*
X462199D01*
X463199Y161398D01*
Y159399D01*
X462199Y158399D01*
X459200D01*
X461199D02*
X463199Y156400D01*
X469197Y162398D02*
X467197Y161398D01*
X465198Y159399D01*
Y157400D01*
X466198Y156400D01*
X468197D01*
X469197Y157400D01*
Y158399D01*
X468197Y159399D01*
X465198D01*
X517600Y160198D02*
Y155200D01*
X518600Y154200D01*
X520599D01*
X521599Y155200D01*
Y160198D01*
X523598Y159198D02*
X524598Y160198D01*
X526597D01*
X527597Y159198D01*
Y158199D01*
X526597Y157199D01*
X525597D01*
X526597D01*
X527597Y156199D01*
Y155200D01*
X526597Y154200D01*
X524598D01*
X523598Y155200D01*
X415800Y159500D02*
Y165498D01*
X418799D01*
X419799Y164498D01*
Y162499D01*
X418799Y161499D01*
X415800D01*
X425797Y159500D02*
X421798D01*
X425797Y163499D01*
Y164498D01*
X424797Y165498D01*
X422798D01*
X421798Y164498D01*
X418999Y267498D02*
X416999D01*
X417999D01*
Y262500D01*
X416999Y261500D01*
X416000D01*
X415000Y262500D01*
X420998Y261500D02*
X422997D01*
X421998D01*
Y267498D01*
X420998Y266498D01*
X471100Y185198D02*
Y180200D01*
X472100Y179200D01*
X474099D01*
X475099Y180200D01*
Y185198D01*
X481097Y179200D02*
X477098D01*
X481097Y183199D01*
Y184198D01*
X480097Y185198D01*
X478098D01*
X477098Y184198D01*
X471100Y236698D02*
Y231700D01*
X472100Y230700D01*
X474099D01*
X475099Y231700D01*
Y236698D01*
X477098Y230700D02*
X479097D01*
X478098D01*
Y236698D01*
X477098Y235698D01*
X433200Y254900D02*
Y260898D01*
X436199D01*
X437199Y259898D01*
Y257899D01*
X436199Y256899D01*
X433200D01*
X435199D02*
X437199Y254900D01*
X443197Y260898D02*
X439198D01*
Y257899D01*
X441197Y258899D01*
X442197D01*
X443197Y257899D01*
Y255900D01*
X442197Y254900D01*
X440198D01*
X439198Y255900D01*
X529200Y254900D02*
Y260898D01*
X532199D01*
X533199Y259898D01*
Y257899D01*
X532199Y256899D01*
X529200D01*
X531199D02*
X533199Y254900D01*
X538197D02*
Y260898D01*
X535198Y257899D01*
X539197D01*
X550700Y211900D02*
Y217898D01*
X553699D01*
X554699Y216898D01*
Y214899D01*
X553699Y213899D01*
X550700D01*
X552699D02*
X554699Y211900D01*
X556698Y216898D02*
X557698Y217898D01*
X559697D01*
X560697Y216898D01*
Y215899D01*
X559697Y214899D01*
X558697D01*
X559697D01*
X560697Y213899D01*
Y212900D01*
X559697Y211900D01*
X557698D01*
X556698Y212900D01*
X510700Y224400D02*
Y230398D01*
X513699D01*
X514699Y229398D01*
Y227399D01*
X513699Y226399D01*
X510700D01*
X512699D02*
X514699Y224400D01*
X520697D02*
X516698D01*
X520697Y228399D01*
Y229398D01*
X519697Y230398D01*
X517698D01*
X516698Y229398D01*
X415800Y217000D02*
Y222998D01*
X418799D01*
X419799Y221998D01*
Y219999D01*
X418799Y218999D01*
X415800D01*
X421798Y217000D02*
X423797D01*
X422798D01*
Y222998D01*
X421798Y221998D01*
X552499Y265998D02*
X550499D01*
X551499D01*
Y261000D01*
X550499Y260000D01*
X549500D01*
X548500Y261000D01*
X558497Y260000D02*
X554498D01*
X558497Y263999D01*
Y264998D01*
X557497Y265998D01*
X555498D01*
X554498Y264998D01*
D14*
X473050Y175865D02*
X476382Y172533D01*
X473050D02*
X476382Y175865D01*
X473050Y174199D02*
X476382D01*
X474716Y172533D02*
Y175865D01*
X519550Y150865D02*
X522882Y147533D01*
X519550D02*
X522882Y150865D01*
X519550Y149199D02*
X522882D01*
X521216Y147533D02*
Y150865D01*
X473050Y227365D02*
X476382Y224033D01*
X473050D02*
X476382Y227365D01*
X473050Y225699D02*
X476382D01*
X474716Y224033D02*
Y227365D01*
M02*
